<?xml version="1.0" encoding="UTF-8"?>
<svg version="1.1" xmlns="http://www.w3.org/2000/svg" width="512" height="512">
<path d="M0 0 C1.09183594 0.66515625 2.18367188 1.3303125 3.30859375 2.015625 C16.14608046 9.98892163 27.6472536 19.17479564 38.55566406 29.61865234 C39.83801618 30.84508039 41.13297661 32.05829487 42.4296875 33.26953125 C49.02447677 39.59442701 54.52387145 46.71230185 60 54 C60.639375 54.84433594 61.27875 55.68867187 61.9375 56.55859375 C81.58708046 83.53128174 92.49262337 115.59957537 96.75 148.4375 C96.87793945 149.42016846 97.00587891 150.40283691 97.13769531 151.4152832 C97.25209961 152.37007568 97.36650391 153.32486816 97.484375 154.30859375 C97.58459961 155.14189209 97.68482422 155.97519043 97.78808594 156.83374023 C97.98689684 159.80422249 98.02067901 162.72174746 98.01324463 165.69789124 C98.01133244 166.69025819 98.00942024 167.68262514 98.0074501 168.70506382 C98.00499157 169.46239276 98.00253304 170.2197217 98 171 C99.27262695 170.99333817 100.54525391 170.98667633 101.85644531 170.97981262 C113.86230078 170.91894097 125.86812484 170.87399819 137.87409973 170.84456348 C144.0461776 170.82892199 150.21813067 170.80771111 156.39013672 170.77368164 C162.34884871 170.74103457 168.30744081 170.72313557 174.26623535 170.71536827 C176.53716926 170.7098344 178.80809676 170.69902812 181.07897949 170.68280983 C184.26503571 170.66096487 187.45059943 170.65803608 190.63671875 170.65942383 C191.57108261 170.648638 192.50544647 170.63785217 193.46812439 170.6267395 C200.54742201 170.66000424 206.23560004 171.66561781 211.8125 176.375 C216.80429743 182.36515692 217.43175806 186.27770159 217.36076355 193.90242004 C217.3633316 194.90474167 217.36589966 195.90706329 217.36854553 196.9397583 C217.37351544 200.31262149 217.35693388 203.6850389 217.34057617 207.05786133 C217.33965731 209.51148559 217.3400574 211.96511065 217.34167194 214.41873455 C217.34228115 220.32918963 217.32942004 226.2395216 217.31016796 232.14993663 C217.28856396 238.98713582 217.2861835 245.82426651 217.28381348 252.66149902 C217.26806384 270.71185436 217.22618048 288.76217924 217.1875 306.8125 C217.125625 347.134375 217.06375 387.45625 217 429 C121.3 429 25.6 429 -73 429 C-73 407.88 -73 386.76 -73 365 C-73.66 365.33 -74.32 365.66 -75 366 C-120.8760725 373.35324403 -172.61992219 359.53996116 -210.3359375 332.96484375 C-211.21507812 332.31644531 -212.09421875 331.66804688 -213 331 C-214.00289063 330.27941406 -215.00578125 329.55882812 -216.0390625 328.81640625 C-222.50118847 324.02877278 -228.49442844 318.8609435 -234.375 313.375 C-235.02887695 312.7658374 -235.68275391 312.1566748 -236.35644531 311.52905273 C-240.86412738 307.25387337 -245.00092054 302.75219746 -249 298 C-249.82516113 297.01966797 -249.82516113 297.01966797 -250.66699219 296.01953125 C-272.69347115 269.43719246 -286.83567891 237.93911187 -293 204 C-293.17660156 203.1013623 -293.35320312 202.20272461 -293.53515625 201.27685547 C-295.32535559 191.2405504 -295.39683003 181.28658921 -295.375 171.125 C-295.37478851 170.21781219 -295.37457703 169.31062439 -295.37435913 168.37594604 C-295.34146848 154.23343463 -294.48844785 140.76171494 -291 127 C-290.80744629 126.20207031 -290.61489258 125.40414062 -290.41650391 124.58203125 C-277.73721981 72.63615891 -245.07130081 28.92183506 -199.5925293 0.93652344 C-184.93709419 -7.81125465 -169.33259442 -14.13901998 -153 -19 C-152.34354492 -19.19577637 -151.68708984 -19.39155273 -151.01074219 -19.59326172 C-101.66795153 -33.92545231 -43.93129586 -26.76959808 0 0 Z M-202.81640625 54.9921875 C-205 57 -205 57 -207.33984375 58.7578125 C-228.84408024 76.88326294 -242.72133626 105.20664245 -249.875 131.875 C-250.06610352 132.5863208 -250.25720703 133.2976416 -250.45410156 134.03051758 C-253.44803485 145.98859139 -254.36546178 157.9544234 -254.3125 170.25 C-254.31067719 170.92598236 -254.30885437 171.60196472 -254.30697632 172.2984314 C-254.25796963 183.13369928 -253.57316481 193.46383151 -251 204 C-250.82839355 204.73428223 -250.65678711 205.46856445 -250.47998047 206.22509766 C-247.82221897 217.38579585 -243.91775638 227.65222096 -239 238 C-238.566875 238.93457031 -238.13375 239.86914062 -237.6875 240.83203125 C-222.92876005 271.6603203 -194.83076305 299.28750251 -163 312.21875 C-161.02327153 312.88589586 -159.01523227 313.46020564 -157 314 C-157 312.35 -157 310.7 -157 309 C-157.82854492 308.59442871 -157.82854492 308.59442871 -158.67382812 308.18066406 C-171.42440341 301.87932342 -183.07378775 295.13258376 -194 286 C-194.82467773 285.31188232 -194.82467773 285.31188232 -195.66601562 284.60986328 C-221.06744801 263.0775746 -237.16749615 233.41169015 -244 201 C-244.20625 200.05253906 -244.4125 199.10507813 -244.625 198.12890625 C-248.02774441 179.20114046 -247.11956474 158.73303704 -243 140 C-242.73316406 138.73800781 -242.46632813 137.47601563 -242.19140625 136.17578125 C-233.32432849 99.09169159 -208.91258652 67.05979867 -176.99609375 46.72314453 C-141.15154151 24.82885712 -98.9672092 19.95517922 -58.4375 29.6875 C-27.88964526 38.43439116 -0.13715331 56.52154145 19 82 C19.60199219 82.79792969 20.20398438 83.59585938 20.82421875 84.41796875 C25.80530861 91.27955995 29.87356402 98.6064477 34 106 C35.32833295 108.33623218 36.66377192 110.66826718 38 113 C40.31 113 42.62 113 45 113 C44.40510024 107.81289153 41.97401131 103.60317069 39.5625 99.0625 C38.89033447 97.79660034 38.89033447 97.79660034 38.20458984 96.50512695 C25.07819398 72.28855647 6.09984614 52.78560452 -17 38 C-18.01835937 37.34128906 -19.03671875 36.68257812 -20.0859375 36.00390625 C-76.50014708 1.30530337 -154.77708041 9.8668589 -202.81640625 54.9921875 Z M-131 31 C-131.76747559 31.19335938 -132.53495117 31.38671875 -133.32568359 31.5859375 C-150.89278609 36.09157076 -167.39598446 43.13097625 -182 54 C-182.82443604 54.60666504 -182.82443604 54.60666504 -183.66552734 55.22558594 C-214.52988407 78.08361329 -235.8602059 111.54727262 -242.3125 149.6875 C-242.57077236 151.78829273 -242.79872504 153.89298241 -243 156 C-243.13277344 157.24136719 -243.26554687 158.48273438 -243.40234375 159.76171875 C-245.64677563 184.16143615 -241.49396639 209.82646408 -231 232 C-230.65340332 232.73428223 -230.30680664 233.46856445 -229.94970703 234.22509766 C-217.68939945 259.72294543 -199.34020497 281.28725947 -175 296 C-174.01580078 296.59941406 -174.01580078 296.59941406 -173.01171875 297.2109375 C-165.39191115 301.99197608 -165.39191115 301.99197608 -157 305 C-156.99853344 304.21223301 -156.99706688 303.42446602 -156.99555588 302.6128273 C-156.95843402 283.40620172 -156.89934818 264.19975722 -156.81609726 244.99327469 C-156.77636146 235.70498634 -156.74394131 226.41678204 -156.72900391 217.12841797 C-156.71595902 209.02857204 -156.68892227 200.92891149 -156.64538693 192.82916999 C-156.62283568 188.54410173 -156.60708549 184.25926158 -156.60811615 179.97412872 C-156.60886654 175.93238003 -156.59076556 171.89113433 -156.55883217 167.84951591 C-156.55038452 166.37425217 -156.54854793 164.89893167 -156.55419731 163.42365456 C-156.60418232 148.35104111 -153.01878706 136.61628217 -142.875 125.3125 C-135.12405119 117.9060378 -123.95663747 113.77382073 -113.3497467 113.7215271 C-112.05275848 113.71036362 -110.75577026 113.69920013 -109.41947937 113.68769836 C-107.99978667 113.68533393 -106.58009364 113.68315818 -105.16040039 113.68115234 C-103.65199247 113.67184524 -102.14358966 113.66167541 -100.63519287 113.65071106 C-96.55516981 113.62348508 -92.47518115 113.60828368 -88.3950913 113.59528303 C-84.12561314 113.57962001 -79.85620486 113.55283993 -75.58677673 113.5272522 C-67.50865407 113.48052048 -59.43051817 113.44374927 -51.35232967 113.41057932 C-42.15278279 113.37231827 -32.9533062 113.32291856 -23.75381863 113.27259517 C-4.83593057 113.16935873 14.08200042 113.08007144 33 113 C27.532071 96.23935868 16.06031319 82.51853178 4 70 C3.35804688 69.29488281 2.71609375 68.58976562 2.0546875 67.86328125 C-19.5396173 44.82000794 -55.16559085 29.33063234 -86.37060547 27.83886719 C-108.87745805 27.38440045 -108.87745805 27.38440045 -131 31 Z " fill="#402854" transform="translate(295,55)"/>
<path d="M0 0 C40.59 0 81.18 0 123 0 C123 73.59 123 147.18 123 223 C27.3 223 -68.4 223 -167 223 C-167 201.88 -167 180.76 -167 159 C-162.38 158.01 -157.76 157.02 -153 156 C-135.08371119 151.73858029 -135.08371119 151.73858029 -118 145 C-116.22178938 144.18524738 -114.44309147 143.37155793 -112.6640625 142.55859375 C-91.44665398 132.75603262 -73.36018469 120.58751677 -56.49609375 104.43310547 C-55.10936578 103.10476128 -53.7113921 101.78818414 -52.3125 100.47265625 C-37.20236896 85.90554554 -25.69054124 67.65776841 -16.81835938 48.73828125 C-16.10013574 47.21269884 -15.35673809 45.69902086 -14.609375 44.1875 C-11.9858421 38.74117854 -9.92982186 33.15791124 -8 27.4375 C-7.66234619 26.44000732 -7.66234619 26.44000732 -7.31787109 25.42236328 C-4.56616485 17.02762309 -2.36942177 8.52991837 0 0 Z " fill="#8DE9CA" transform="translate(389,261)"/>
<path d="M0 0 C9.09484011 7.77741383 17.44992501 15.78602428 24.64160156 25.40380859 C25.24230469 26.20044922 25.84300781 26.99708984 26.46191406 27.81787109 C49.52274963 59.56529943 59.60107965 100.81721504 53.66479492 139.65454102 C47.54597894 172.84919879 31.35409036 200.91190109 7.64160156 224.40380859 C9.62160156 224.73380859 11.60160156 225.06380859 13.64160156 225.40380859 C9.4089522 230.64832569 5.02489966 234.80291427 -0.35839844 238.84130859 C-1.10750488 239.40551514 -1.85661133 239.96972168 -2.62841797 240.55102539 C-17.94713812 251.90105568 -34.96862198 259.47800064 -53.23339844 264.77880859 C-54.46135132 265.13676514 -54.46135132 265.13676514 -55.71411133 265.50195312 C-67.77267296 268.82704349 -79.56762149 269.73195265 -92.00585938 269.66455078 C-94.35540561 269.65382226 -96.7041876 269.6645142 -99.05371094 269.67724609 C-111.93846595 269.69139037 -123.90487823 268.12917905 -136.29589844 264.46630859 C-137.18857422 264.21429688 -138.08125 263.96228516 -139.00097656 263.70263672 C-143.74028674 262.32897454 -148.0358825 260.78938164 -152.35839844 258.40380859 C-152.35839844 256.42380859 -152.35839844 254.44380859 -152.35839844 252.40380859 C-153.63070312 252.01322266 -153.63070312 252.01322266 -154.92871094 251.61474609 C-187.99006708 239.94160213 -213.86975174 209.67029546 -229.13183594 179.22021484 C-232.64371075 171.87029874 -235.12818918 164.22409851 -237.35839844 156.40380859 C-237.83212891 154.76992188 -237.83212891 154.76992188 -238.31542969 153.10302734 C-239.09185484 150.21533772 -239.7543352 147.33211517 -240.35839844 144.40380859 C-240.56335938 143.46021484 -240.76832031 142.51662109 -240.97949219 141.54443359 C-244.39301367 122.61704552 -243.47812396 102.13757679 -239.35839844 83.40380859 C-239.0915625 82.14181641 -238.82472656 80.87982422 -238.54980469 79.57958984 C-229.58135772 42.07155164 -204.61470252 9.68261834 -172.35449219 -10.87304688 C-119.55497748 -43.12363108 -47.95274012 -40.13789122 0 0 Z M-126.35839844 -25.59619141 C-127.12587402 -25.40283203 -127.89334961 -25.20947266 -128.68408203 -25.01025391 C-146.25118453 -20.50462065 -162.75438289 -13.46521515 -177.35839844 -2.59619141 C-178.18283447 -1.98952637 -178.18283447 -1.98952637 -179.02392578 -1.37060547 C-209.88828251 21.48742189 -231.21860433 54.95108122 -237.67089844 93.09130859 C-237.9291708 95.19210133 -238.15712348 97.29679101 -238.35839844 99.40380859 C-238.49117187 100.64517578 -238.62394531 101.88654297 -238.76074219 103.16552734 C-241.00517407 127.56524475 -236.85236483 153.23027267 -226.35839844 175.40380859 C-226.01180176 176.13809082 -225.66520508 176.87237305 -225.30810547 177.62890625 C-213.04779789 203.12675402 -194.6986034 224.69106807 -170.35839844 239.40380859 C-169.37419922 240.00322266 -169.37419922 240.00322266 -168.37011719 240.61474609 C-160.75030959 245.39578468 -160.75030959 245.39578468 -152.35839844 248.40380859 C-152.35693188 247.6160416 -152.35546532 246.82827461 -152.35395432 246.01663589 C-152.31683246 226.81001032 -152.25774661 207.60356581 -152.1744957 188.39708328 C-152.13475989 179.10879493 -152.10233974 169.82059064 -152.08740234 160.53222656 C-152.07435745 152.43238064 -152.0473207 144.33272008 -152.00378537 136.23297858 C-151.98123412 131.94791033 -151.96548393 127.66307017 -151.96651459 123.37793732 C-151.96726497 119.33618862 -151.94916399 115.29494292 -151.91723061 111.25332451 C-151.90878296 109.77806077 -151.90694637 108.30274026 -151.91259575 106.82746315 C-151.96258075 91.75484971 -148.37718549 80.02009076 -138.23339844 68.71630859 C-130.48244963 61.3098464 -119.31503591 57.17762932 -108.70814514 57.12533569 C-107.41115692 57.11417221 -106.1141687 57.10300873 -104.77787781 57.09150696 C-103.35818511 57.08914252 -101.93849208 57.08696678 -100.51879883 57.08496094 C-99.0103909 57.07565384 -97.5019881 57.06548401 -95.99359131 57.05451965 C-91.91356825 57.02729368 -87.83357958 57.01209227 -83.75348973 56.99909163 C-79.48401158 56.9834286 -75.2146033 56.95664852 -70.94517517 56.93106079 C-62.8670525 56.88432908 -54.78891661 56.84755787 -46.71072811 56.81438792 C-37.51118123 56.77612686 -28.31170464 56.72672715 -19.11221707 56.67640376 C-0.19432901 56.57316733 18.72360198 56.48388003 37.64160156 56.40380859 C32.17367256 39.64316727 20.70191476 25.92234037 8.64160156 13.40380859 C7.99964844 12.69869141 7.35769531 11.99357422 6.69628906 11.26708984 C-14.89801574 -11.77618346 -50.52398929 -27.26555907 -81.72900391 -28.75732422 C-104.23585648 -29.21179096 -104.23585648 -29.21179096 -126.35839844 -25.59619141 Z " fill="#008A76" transform="translate(290.3583984375,111.59619140625)"/>
<path d="M0 0 C28.84597591 26.64127626 46.56335277 60.44526096 54.125 98.8125 C54.49818359 100.63587891 54.49818359 100.63587891 54.87890625 102.49609375 C62.07470072 145.21797843 51.15195771 192.36546265 26.5 227.875 C25.06015868 229.86765998 23.60307763 231.84803485 22.125 233.8125 C21.49207031 234.65683594 20.85914063 235.50117188 20.20703125 236.37109375 C-7.1020497 271.56320837 -44.32972804 294.10344561 -87.875 302.8125 C-89.30392578 303.10447266 -89.30392578 303.10447266 -90.76171875 303.40234375 C-134.75007842 311.2799977 -182.11184524 300.67539058 -218.9296875 275.61328125 C-225.12319265 271.27478415 -231.04540608 266.62530429 -236.875 261.8125 C-237.66648438 261.16410156 -238.45796875 260.51570313 -239.2734375 259.84765625 C-243.2830768 256.46020236 -246.7902047 252.82584185 -250.17578125 248.81640625 C-251.24954182 247.5501093 -252.34852517 246.30441094 -253.48046875 245.08984375 C-276.44698193 220.26855278 -289.22626572 187.67749679 -294.875 154.8125 C-295.060625 153.84828125 -295.24625 152.8840625 -295.4375 151.890625 C-301.6076224 108.47940671 -289.54170838 62.57013454 -264.2734375 26.96484375 C-234.0157264 -12.80384169 -193.32881925 -38.17490563 -143.828125 -45.81640625 C-90.72603881 -52.48928745 -39.50587892 -35.71224699 0 0 Z M-223.69140625 13.8046875 C-225.875 15.8125 -225.875 15.8125 -228.21484375 17.5703125 C-249.71908024 35.69576294 -263.59633626 64.01914245 -270.75 90.6875 C-270.94110352 91.3988208 -271.13220703 92.1101416 -271.32910156 92.84301758 C-274.32303485 104.80109139 -275.24046178 116.7669234 -275.1875 129.0625 C-275.18567719 129.73848236 -275.18385437 130.41446472 -275.18197632 131.1109314 C-275.13296963 141.94619928 -274.44816481 152.27633151 -271.875 162.8125 C-271.70339355 163.54678223 -271.53178711 164.28106445 -271.35498047 165.03759766 C-268.69721897 176.19829585 -264.79275638 186.46472096 -259.875 196.8125 C-259.441875 197.74707031 -259.00875 198.68164062 -258.5625 199.64453125 C-243.57014465 230.96079982 -217.23472477 254.03256655 -186.875 269.8125 C-186.2754248 270.13057617 -185.67584961 270.44865234 -185.05810547 270.77636719 C-177.37974866 274.80608337 -169.57778638 277.70912995 -161.25 280.125 C-160.41573486 280.36758545 -159.58146973 280.6101709 -158.72192383 280.86010742 C-146.65855862 284.17826592 -134.83874003 285.1634698 -122.39233398 285.12817383 C-120.07552769 285.12501775 -117.76000881 285.14855915 -115.44335938 285.17382812 C-105.25656447 285.21708789 -95.8011181 284.06751365 -85.875 281.8125 C-85.01753174 281.62437744 -84.16006348 281.43625488 -83.27661133 281.24243164 C-57.87978532 275.36972015 -28.09338723 262.12809465 -11.875 240.8125 C-13.855 240.4825 -15.835 240.1525 -17.875 239.8125 C-17.13636719 239.12027344 -16.39773438 238.42804688 -15.63671875 237.71484375 C10.39368456 212.82183803 28.22720112 176.16478343 29.40625 139.93359375 C29.66113269 126.29469638 29.27097084 113.11137675 26.125 99.8125 C25.97514648 99.15652832 25.82529297 98.50055664 25.67089844 97.82470703 C23.57819334 88.8296296 20.63417006 80.34093379 17.125 71.8125 C19.435 71.8125 21.745 71.8125 24.125 71.8125 C23.53010024 66.62539153 21.09901131 62.41567069 18.6875 57.875 C18.01533447 56.60910034 18.01533447 56.60910034 17.32958984 55.31762695 C4.20319398 31.10105647 -14.77515386 11.59810452 -37.875 -3.1875 C-38.89335937 -3.84621094 -39.91171875 -4.50492188 -40.9609375 -5.18359375 C-97.37514708 -39.88219663 -175.65208041 -31.3206411 -223.69140625 13.8046875 Z " fill="#4F3C5C" transform="translate(315.875,96.1875)"/>
<path d="M0 0 C3.13324663 0.08022366 6.26621759 0.08350855 9.40036774 0.09346008 C18.54164243 0.16668414 27.68160793 0.3621454 36.82138824 0.54292297 C57.26076324 0.83167297 77.70013824 1.12042297 98.75888824 1.41792297 C98.75888824 45.30792297 98.75888824 89.19792297 98.75888824 134.41792297 C59.42760496 134.45822601 59.42760496 134.45822601 42.99912262 134.4667511 C31.63673198 134.47269447 20.27434874 134.4796972 8.91196442 134.49336243 C0.63835979 134.50330815 -7.63523886 134.50977613 -15.9088493 134.51201147 C-20.29244765 134.51331877 -24.67602892 134.51640582 -29.05962181 134.52365303 C-33.18074676 134.53041148 -37.30184748 134.53254029 -41.42297745 134.53103065 C-42.93997517 134.53130706 -44.45697365 134.53331322 -45.9739666 134.53712845 C-48.03618477 134.54206298 -50.09831002 134.54092218 -52.16053009 134.53817749 C-53.31738029 134.53909928 -54.47423048 134.54002108 -55.66613674 134.5409708 C-58.24111176 134.41792297 -58.24111176 134.41792297 -59.24111176 133.41792297 C-59.41086574 130.66278742 -59.51531246 127.93138445 -59.57680511 125.17304993 C-59.6107563 123.87520065 -59.6107563 123.87520065 -59.64539337 122.5511322 C-59.84336864 114.5240423 -59.95823248 106.4953351 -60.04861355 98.46638203 C-60.11025491 93.0753549 -60.19842519 87.68779074 -60.35219574 82.29853821 C-60.50034649 77.08391182 -60.5780672 71.87242595 -60.60833168 66.65582848 C-60.63150362 64.67691179 -60.6788455 62.69811109 -60.75189781 60.72040749 C-61.32498552 44.45172211 -61.32498552 44.45172211 -56.21575165 38.21684265 C-53.33741571 35.17281473 -50.2078803 32.52557893 -46.95108986 29.8991909 C-44.21912834 27.5326302 -42.09029772 24.79976397 -39.92861176 21.91792297 C-39.51225212 21.39065267 -39.09589249 20.86338236 -38.66691589 20.32013416 C-36.54019293 17.54026887 -35.09104638 15.03612386 -33.80680084 11.76872253 C-27.86942374 -2.98816187 -13.71467244 -0.4080241 0 0 Z " fill="#E9EAE9" transform="translate(389.2411117553711,325.5820770263672)"/>
<path d="M0 0 C9.09484011 7.77741383 17.44992501 15.78602428 24.64160156 25.40380859 C25.24230469 26.20044922 25.84300781 26.99708984 26.46191406 27.81787109 C49.52274963 59.56529943 59.60107965 100.81721504 53.66479492 139.65454102 C47.54597894 172.84919879 31.35409036 200.91190109 7.64160156 224.40380859 C9.62160156 224.73380859 11.60160156 225.06380859 13.64160156 225.40380859 C9.4089522 230.64832569 5.02489966 234.80291427 -0.35839844 238.84130859 C-1.10750488 239.40551514 -1.85661133 239.96972168 -2.62841797 240.55102539 C-17.94713812 251.90105568 -34.96862198 259.47800064 -53.23339844 264.77880859 C-54.46135132 265.13676514 -54.46135132 265.13676514 -55.71411133 265.50195312 C-67.77267296 268.82704349 -79.56762149 269.73195265 -92.00585938 269.66455078 C-94.35540561 269.65382226 -96.7041876 269.6645142 -99.05371094 269.67724609 C-111.93846595 269.69139037 -123.90487823 268.12917905 -136.29589844 264.46630859 C-137.18857422 264.21429688 -138.08125 263.96228516 -139.00097656 263.70263672 C-143.74028674 262.32897454 -148.0358825 260.78938164 -152.35839844 258.40380859 C-152.35839844 256.42380859 -152.35839844 254.44380859 -152.35839844 252.40380859 C-153.63070312 252.01322266 -153.63070312 252.01322266 -154.92871094 251.61474609 C-187.99006708 239.94160213 -213.86975174 209.67029546 -229.13183594 179.22021484 C-232.64371075 171.87029874 -235.12818918 164.22409851 -237.35839844 156.40380859 C-237.83212891 154.76992188 -237.83212891 154.76992188 -238.31542969 153.10302734 C-239.09185484 150.21533772 -239.7543352 147.33211517 -240.35839844 144.40380859 C-240.56335938 143.46021484 -240.76832031 142.51662109 -240.97949219 141.54443359 C-244.39301367 122.61704552 -243.47812396 102.13757679 -239.35839844 83.40380859 C-239.0915625 82.14181641 -238.82472656 80.87982422 -238.54980469 79.57958984 C-229.58135772 42.07155164 -204.61470252 9.68261834 -172.35449219 -10.87304688 C-119.55497748 -43.12363108 -47.95274012 -40.13789122 0 0 Z M-126.35839844 -25.59619141 C-127.12587402 -25.40283203 -127.89334961 -25.20947266 -128.68408203 -25.01025391 C-146.25118453 -20.50462065 -162.75438289 -13.46521515 -177.35839844 -2.59619141 C-178.18283447 -1.98952637 -178.18283447 -1.98952637 -179.02392578 -1.37060547 C-209.88828251 21.48742189 -231.21860433 54.95108122 -237.67089844 93.09130859 C-237.9291708 95.19210133 -238.15712348 97.29679101 -238.35839844 99.40380859 C-238.49117187 100.64517578 -238.62394531 101.88654297 -238.76074219 103.16552734 C-241.00517407 127.56524475 -236.85236483 153.23027267 -226.35839844 175.40380859 C-226.01180176 176.13809082 -225.66520508 176.87237305 -225.30810547 177.62890625 C-213.04779789 203.12675402 -194.6986034 224.69106807 -170.35839844 239.40380859 C-169.37419922 240.00322266 -169.37419922 240.00322266 -168.37011719 240.61474609 C-160.73166824 245.33353454 -160.73166824 245.33353454 -152.35839844 248.40380859 C-152.35839844 240.81380859 -152.35839844 233.22380859 -152.35839844 225.40380859 C-150.43209091 225.41713226 -148.50578339 225.43045593 -146.52110291 225.44418335 C-128.37835065 225.56574874 -110.23568076 225.6560868 -92.09261227 225.71468163 C-82.76478139 225.74560805 -73.43725474 225.78776522 -64.10961914 225.85644531 C-55.97878599 225.91628467 -47.84817318 225.95496657 -39.71712595 225.96833956 C-35.4124321 225.97615575 -31.10836854 225.99449946 -26.80387688 226.03818893 C-22.74980916 226.07900218 -18.69662959 226.09146042 -14.64237595 226.08245468 C-13.15687669 226.08410147 -11.67134686 226.09598566 -10.18602562 226.11904144 C-0.96354776 226.48285654 -0.96354776 226.48285654 6.9684906 222.47207642 C7.89253861 221.47904474 8.79036124 220.45991775 9.64160156 219.40380859 C10.52912109 218.52595703 10.52912109 218.52595703 11.43457031 217.63037109 C28.61916845 197.8945581 40.69431251 176.70370815 47.64160156 151.40380859 C47.94227539 150.33839844 47.94227539 150.33839844 48.24902344 149.25146484 C56.23527439 119.87253512 53.6660356 83.10258289 39.36035156 55.97412109 C38.57271506 54.71693206 37.75515728 53.47779024 36.90332031 52.26318359 C35.38372304 50.02377709 34.19478834 47.68372526 32.95410156 45.27880859 C26.4737898 33.32660093 18.03465997 23.15374612 8.64160156 13.40380859 C7.99964844 12.69869141 7.35769531 11.99357422 6.69628906 11.26708984 C-14.89801574 -11.77618346 -50.52398929 -27.26555907 -81.72900391 -28.75732422 C-104.23585648 -29.21179096 -104.23585648 -29.21179096 -126.35839844 -25.59619141 Z " fill="#5FEFBE" transform="translate(290.3583984375,111.59619140625)"/>
<path d="M0 0 C9.09484011 7.77741383 17.44992501 15.78602428 24.64160156 25.40380859 C25.24230469 26.20044922 25.84300781 26.99708984 26.46191406 27.81787109 C49.52274963 59.56529943 59.60107965 100.81721504 53.66479492 139.65454102 C47.54597894 172.84919879 31.35409036 200.91190109 7.64160156 224.40380859 C9.62160156 224.73380859 11.60160156 225.06380859 13.64160156 225.40380859 C9.4089522 230.64832569 5.02489966 234.80291427 -0.35839844 238.84130859 C-1.10750488 239.40551514 -1.85661133 239.96972168 -2.62841797 240.55102539 C-17.94713812 251.90105568 -34.96862198 259.47800064 -53.23339844 264.77880859 C-54.46135132 265.13676514 -54.46135132 265.13676514 -55.71411133 265.50195312 C-67.77267296 268.82704349 -79.56762149 269.73195265 -92.00585938 269.66455078 C-94.35540561 269.65382226 -96.7041876 269.6645142 -99.05371094 269.67724609 C-111.93846595 269.69139037 -123.90487823 268.12917905 -136.29589844 264.46630859 C-137.18857422 264.21429688 -138.08125 263.96228516 -139.00097656 263.70263672 C-143.74028674 262.32897454 -148.0358825 260.78938164 -152.35839844 258.40380859 C-152.35839844 256.42380859 -152.35839844 254.44380859 -152.35839844 252.40380859 C-153.63070312 252.01322266 -153.63070312 252.01322266 -154.92871094 251.61474609 C-187.99006708 239.94160213 -213.86975174 209.67029546 -229.13183594 179.22021484 C-232.64371075 171.87029874 -235.12818918 164.22409851 -237.35839844 156.40380859 C-237.83212891 154.76992188 -237.83212891 154.76992188 -238.31542969 153.10302734 C-239.09185484 150.21533772 -239.7543352 147.33211517 -240.35839844 144.40380859 C-240.56335938 143.46021484 -240.76832031 142.51662109 -240.97949219 141.54443359 C-244.39301367 122.61704552 -243.47812396 102.13757679 -239.35839844 83.40380859 C-239.0915625 82.14181641 -238.82472656 80.87982422 -238.54980469 79.57958984 C-229.58135772 42.07155164 -204.61470252 9.68261834 -172.35449219 -10.87304688 C-119.55497748 -43.12363108 -47.95274012 -40.13789122 0 0 Z M-126.35839844 -25.59619141 C-127.12587402 -25.40283203 -127.89334961 -25.20947266 -128.68408203 -25.01025391 C-146.25118453 -20.50462065 -162.75438289 -13.46521515 -177.35839844 -2.59619141 C-178.18283447 -1.98952637 -178.18283447 -1.98952637 -179.02392578 -1.37060547 C-209.88828251 21.48742189 -231.21860433 54.95108122 -237.67089844 93.09130859 C-237.9291708 95.19210133 -238.15712348 97.29679101 -238.35839844 99.40380859 C-238.49117187 100.64517578 -238.62394531 101.88654297 -238.76074219 103.16552734 C-241.00517407 127.56524475 -236.85236483 153.23027267 -226.35839844 175.40380859 C-226.01180176 176.13809082 -225.66520508 176.87237305 -225.30810547 177.62890625 C-213.05257917 203.11681037 -194.7021096 224.70996957 -170.35839844 239.40380859 C-169.73416992 239.78214844 -169.10994141 240.16048828 -168.46679688 240.55029297 C-164.48487778 242.93819422 -160.44404186 245.19685411 -156.35839844 247.40380859 C-155.51148438 247.87431641 -154.66457031 248.34482422 -153.79199219 248.82958984 C-124.22043234 264.56536222 -85.0425502 265.92319433 -53.35839844 256.40380859 C-34.52936161 250.2366581 -14.59634998 241.67251165 -0.35839844 227.40380859 C-0.35839844 226.74380859 -0.35839844 226.08380859 -0.35839844 225.40380859 C0.17785156 225.34193359 0.71410156 225.28005859 1.26660156 225.21630859 C17.20816134 219.76261709 30.55983691 193.57498147 37.64160156 179.40380859 C41.94169046 170.41989584 45.00885613 160.99146133 47.64160156 151.40380859 C47.94227539 150.33839844 47.94227539 150.33839844 48.24902344 149.25146484 C56.23527439 119.87253512 53.6660356 83.10258289 39.36035156 55.97412109 C38.57271506 54.71693206 37.75515728 53.47779024 36.90332031 52.26318359 C35.38372304 50.02377709 34.19478834 47.68372526 32.95410156 45.27880859 C26.4737898 33.32660093 18.03465997 23.15374612 8.64160156 13.40380859 C7.99964844 12.69869141 7.35769531 11.99357422 6.69628906 11.26708984 C-14.89801574 -11.77618346 -50.52398929 -27.26555907 -81.72900391 -28.75732422 C-104.23585648 -29.21179096 -104.23585648 -29.21179096 -126.35839844 -25.59619141 Z " fill="#F9F6EF" transform="translate(290.3583984375,111.59619140625)"/>
<path d="M0 0 C13.42171682 -0.06957391 26.84339059 -0.12284897 40.26525116 -0.15543652 C46.49786254 -0.17107852 52.73035035 -0.19229036 58.96289062 -0.22631836 C64.97995719 -0.25896358 70.99690504 -0.27686404 77.01405334 -0.28463173 C79.30731576 -0.29016593 81.60057182 -0.30097286 83.89378357 -0.31719017 C87.11097144 -0.33903264 90.32767153 -0.34196402 93.54492188 -0.34057617 C94.48863647 -0.351362 95.43235107 -0.36214783 96.40466309 -0.3732605 C103.51086514 -0.34018642 109.21289562 0.64644519 114.8125 5.375 C123.31729951 15.58075941 120 17.72837479 120 35 C79.41 35 38.82 35 -3 35 C-2.505 30.545 -2.505 30.545 -2 26 C-1.80928965 23.81223733 -1.62990759 21.62344074 -1.46484375 19.43359375 C-1.37783203 18.28955078 -1.29082031 17.14550781 -1.20117188 15.96679688 C-1.11416016 14.80212891 -1.02714844 13.63746094 -0.9375 12.4375 C-0.84662109 11.23802734 -0.75574219 10.03855469 -0.66210938 8.80273438 C-0.44000302 5.86859252 -0.21933398 2.93435018 0 0 Z " fill="#038678" transform="translate(392,226)"/>
<path d="M0 0 C2.64 0 5.28 0 8 0 C11.86557511 7.64890395 13.95226999 15.34760468 15.75 23.6875 C15.96035889 24.66082275 16.17071777 25.63414551 16.38745117 26.63696289 C24.58008112 66.09226665 16.06280308 108.07808852 -5.28369141 142.04248047 C-9.96106507 149.13875026 -15.20424753 155.68357911 -21.046875 161.86328125 C-22.75468176 163.73162185 -24.13479841 165.60781469 -25.5625 167.6875 C-28 170 -28 170 -30.078125 170.13671875 C-32.3125 169.875 -32.3125 169.875 -36 169 C-32.44996311 164.79600894 -28.81083913 160.71624923 -25.0625 156.6875 C1.64220602 127.27246561 12.41720715 88.30512535 11.17285156 49.35888672 C10.79860004 42.0863551 9.67871388 35.07696555 8 28 C7.8448291 27.32807617 7.6896582 26.65615234 7.52978516 25.96386719 C5.82708482 18.73303171 3.74357603 11.75854887 0.734375 4.953125 C0 3 0 3 0 0 Z " fill="#047676" transform="translate(333,168)"/>
<path d="M0 0 C2.01822917 0.06510417 4.03645833 0.13020833 6.0546875 0.1953125 C1.82203814 5.4398296 -2.5620144 9.59441818 -7.9453125 13.6328125 C-8.69441895 14.19701904 -9.44352539 14.76122559 -10.21533203 15.3425293 C-25.53405218 26.69255959 -42.55553605 34.26950454 -60.8203125 39.5703125 C-61.63894775 39.8089502 -62.45758301 40.04758789 -63.30102539 40.29345703 C-75.35958703 43.6185474 -87.15453556 44.52345656 -99.59277344 44.45605469 C-101.94231967 44.44532617 -104.29110166 44.45601811 -106.640625 44.46875 C-119.52538001 44.48289427 -131.49179229 42.92068296 -143.8828125 39.2578125 C-144.77548828 39.00580078 -145.66816406 38.75378906 -146.58789062 38.49414062 C-151.3272008 37.12047845 -155.62279657 35.58088554 -159.9453125 33.1953125 C-159.9453125 31.2153125 -159.9453125 29.2353125 -159.9453125 27.1953125 C-158.54927307 27.61128813 -157.15350051 28.02815933 -155.7578125 28.4453125 C-154.84 28.71859375 -153.9221875 28.991875 -152.9765625 29.2734375 C-150.94983994 29.88981189 -148.92886392 30.52539632 -146.9140625 31.1796875 C-117.09156462 40.77603583 -84.76280305 41.04607177 -54.9453125 31.1953125 C-53.98238281 30.92203125 -53.01945312 30.64875 -52.02734375 30.3671875 C-35.10861656 25.34408361 -14.69347146 1.47524814 0 0 Z " fill="#6BEABF" transform="translate(297.9453125,336.8046875)"/>
<path d="M0 0 C0 0.99 0 1.98 0 3 C-0.67764404 3.05945801 -1.35528809 3.11891602 -2.0534668 3.18017578 C-41.49337781 6.79131678 -75.3734315 20.07281733 -101.8359375 50.37109375 C-122.70202131 75.7192425 -129.81431406 103.93761243 -133 136 C-134.32 135.67 -135.64 135.34 -137 135 C-136.07176028 99.16994691 -123.89037837 66.98995332 -99 41 C-97.7934375 39.7315625 -97.7934375 39.7315625 -96.5625 38.4375 C-95.716875 37.633125 -94.87125 36.82875 -94 36 C-93.34128906 35.35804688 -92.68257812 34.71609375 -92.00390625 34.0546875 C-75.0537408 18.07866949 -25.10405248 -12.55202624 0 0 Z " fill="#FAF7F0" transform="translate(198,93)"/>
<path d="M0 0 C2.31062359 3.46593538 3.57804852 7.03567009 4.9375 10.9375 C5.20401367 11.70167236 5.47052734 12.46584473 5.74511719 13.25317383 C18.6981558 50.99851861 14.64168772 90.14013795 -2.234375 125.87109375 C-11.80820021 145.11008531 -25.80980364 160.07423646 -41 175 C-41.99 174.67 -42.98 174.34 -44 174 C-43.34 173.01 -42.68 172.02 -42 171 C-42 170.34 -42 169.68 -42 169 C-40.34928604 167.97388051 -38.68029994 166.97691857 -37 166 C-36.443125 165.443125 -35.88625 164.88625 -35.3125 164.3125 C-34.879375 163.879375 -34.44625 163.44625 -34 163 C-33.34 163 -32.68 163 -32 163 C-31.75636719 162.43539062 -31.51273437 161.87078125 -31.26171875 161.2890625 C-29.76470019 158.57310932 -27.94366063 156.62720762 -25.8125 154.375 C-10.4835998 137.55477139 -0.98024028 116.77820402 5 95 C5.30067383 93.93458984 5.30067383 93.93458984 5.60742188 92.84765625 C13.06973174 65.39614259 10.81001611 33.8651581 -0.1796875 7.70703125 C-1.09508557 4.68621761 -0.88649566 2.9932909 0 0 Z " fill="#E1EAE3" transform="translate(332,168)"/>
<path d="M0 0 C0.99 0.495 0.99 0.495 2 1 C-0.84482655 5.85376579 -3.9199776 8.7829874 -8.6875 11.8125 C-9.33887939 12.2348291 -9.99025879 12.6571582 -10.66137695 13.09228516 C-21.82980841 20.20392669 -33.21908916 26.37275355 -46 30 C-47.01449219 30.33515625 -48.02898437 30.6703125 -49.07421875 31.015625 C-77.67492161 40.08661715 -109.6051424 39.39042535 -138 30 C-139.41152344 29.54367187 -139.41152344 29.54367187 -140.8515625 29.078125 C-142.90708396 28.40355758 -144.95479973 27.70524147 -147 27 C-146.34 26.34 -145.68 25.68 -145 25 C-139.47400502 25.46872279 -134.22842296 27.38529639 -128.98046875 29.09570312 C-94.64477769 39.70218283 -55.79248773 32.54600619 -24.41845703 16.69580078 C-15.60705664 12.00410872 -7.50398486 6.60055671 0 0 Z " fill="#EAF5EA" transform="translate(289,339)"/>
<path d="M0 0 C34.65 0 69.3 0 105 0 C105 1.32 105 2.64 105 4 C70.02 4 35.04 4 -1 4 C-0.67 2.68 -0.34 1.36 0 0 Z " fill="#CBDED3" transform="translate(383,285)"/>
<path d="M0 0 C0.66 0 1.32 0 2 0 C3.10552145 4.92490984 4.20809732 9.85046712 5.30810547 14.77661133 C5.68167174 16.44768493 6.05600229 18.11858788 6.43115234 19.78930664 C8.4608343 28.8308632 10.47125633 37.85688779 12 47 C12.33 47 12.66 47 13 47 C13.2673999 45.74864258 13.5347998 44.49728516 13.81030273 43.20800781 C14.80293505 38.5636534 15.79647259 33.91949303 16.7902832 29.27539062 C17.22021773 27.26567783 17.64990701 25.25591255 18.0793457 23.24609375 C18.69678251 20.35663225 19.31510208 17.46736086 19.93359375 14.578125 C20.12529648 13.68007141 20.31699921 12.78201782 20.51451111 11.85675049 C20.69462234 11.01618103 20.87473358 10.17561157 21.06030273 9.30957031 C21.21796616 8.57232727 21.37562958 7.83508423 21.53807068 7.07550049 C21.99096686 5.04058691 22.48495747 3.01999113 23 1 C23.66 1 24.32 1 25 1 C24.4745894 7.5799084 23.52500587 13.87673998 22.00390625 20.296875 C21.81030014 21.13414124 21.61669403 21.97140747 21.41722107 22.83404541 C21.01083296 24.58585118 20.60146644 26.33696853 20.18920898 28.08740234 C19.56111385 30.75588912 18.94290727 33.42652361 18.32617188 36.09765625 C17.92765809 37.8100297 17.52858888 39.522274 17.12890625 41.234375 C16.94550186 42.02511414 16.76209747 42.81585327 16.57313538 43.6305542 C15.57889308 47.83721876 14.44298588 51.91851585 13 56 C12.01 55.505 12.01 55.505 11 55 C10.2738397 52.46644806 9.67015968 49.98779987 9.125 47.4140625 C8.95500488 46.64250824 8.78500977 45.87095398 8.60986328 45.07601929 C8.06532487 42.59400046 7.53278466 40.1095653 7 37.625 C6.64135613 35.98812089 6.28198939 34.35139998 5.921875 32.71484375 C4.12517605 24.50340697 2.40503909 16.28926843 1 8 C0.73783691 9.16982422 0.47567383 10.33964844 0.20556641 11.54492188 C-0.77375466 15.91363277 -1.75436511 20.28205342 -2.73535156 24.65039062 C-3.15855127 26.53572918 -3.58140821 28.42114471 -4.00390625 30.30664062 C-4.61366618 33.02755048 -5.22468643 35.74817479 -5.8359375 38.46875 C-6.02247894 39.30241089 -6.20902039 40.13607178 -6.4012146 40.99499512 C-7.53083056 46.01593177 -8.73294761 51.01192023 -10 56 C-10.66 56 -11.32 56 -12 56 C-12.29132813 54.71351563 -12.58265625 53.42703125 -12.8828125 52.1015625 C-13.07786377 51.24183838 -13.27291504 50.38211426 -13.47387695 49.49633789 C-13.91337723 47.55821912 -14.35199567 45.6199002 -14.78979492 43.68139648 C-16.05133145 38.11185159 -17.34006062 32.55021385 -18.66796875 26.99609375 C-18.9417334 25.84093262 -19.21549805 24.68577148 -19.49755859 23.49560547 C-20.03193812 21.24442365 -20.57241863 18.99467944 -21.11962891 16.74658203 C-22.39008197 11.36696824 -23.33829526 6.53073411 -23 1 C-20.70477381 3.29522619 -20.51878886 4.33491382 -19.85498047 7.44970703 C-19.55489578 8.83091232 -19.55489578 8.83091232 -19.24874878 10.24002075 C-19.04033356 11.23589203 -18.83191833 12.23176331 -18.6171875 13.2578125 C-18.39805695 14.27600067 -18.17892639 15.29418884 -17.95315552 16.3432312 C-17.25342417 19.6023656 -16.56410824 22.86360466 -15.875 26.125 C-15.40302698 28.33217746 -14.93037931 30.53921077 -14.45703125 32.74609375 C-13.29684781 38.16241286 -12.14521277 43.58049696 -11 49 C-10.83918945 48.2157666 -10.67837891 47.4315332 -10.51269531 46.62353516 C-5.09367683 20.22804497 -5.09367683 20.22804497 -2.6875 9.3125 C-2.52862305 8.58434082 -2.36974609 7.85618164 -2.20605469 7.10595703 C-1.12184356 2.24368711 -1.12184356 2.24368711 0 0 Z " fill="#3D455D" transform="translate(305,235)"/>
<path d="M0 0 C1.82779542 2.74169314 2.39503283 4.05564894 3.05322266 7.1484375 C3.23325836 7.97939941 3.41329407 8.81036133 3.5987854 9.66650391 C3.78532684 10.56030762 3.97186829 11.45411133 4.1640625 12.375 C4.36099701 13.29587402 4.55793152 14.21674805 4.76083374 15.16552734 C5.17565521 17.11165324 5.58733099 19.05845191 5.99609375 21.00585938 C6.62287612 23.98988846 7.25982222 26.97160836 7.8984375 29.953125 C8.3000801 31.84362243 8.70114145 33.73424346 9.1015625 35.625 C9.2921524 36.51880371 9.48274231 37.41260742 9.67910767 38.33349609 C9.85283905 39.16445801 10.02657043 39.99541992 10.20556641 40.8515625 C10.35941803 41.58197754 10.51326965 42.31239258 10.67178345 43.06494141 C11 45 11 45 11 48 C11.66 48 12.32 48 13 48 C13.10376953 47.33242676 13.20753906 46.66485352 13.31445312 45.97705078 C14.65416264 37.63469646 16.28902799 29.37099919 18.03173828 21.10546875 C18.506258 18.84519128 18.96989883 16.58283229 19.43359375 14.3203125 C19.73631616 12.8774649 20.03967727 11.43475113 20.34375 9.9921875 C20.48026978 9.31832001 20.61678955 8.64445251 20.75744629 7.95016479 C21.77147024 3.22852976 21.77147024 3.22852976 24 1 C23.45230721 7.81694884 22.43654082 14.38247372 20.96875 21.05859375 C20.67478333 22.42504784 20.67478333 22.42504784 20.37487793 23.81910706 C19.96391309 25.7246057 19.55035156 27.62954604 19.13427734 29.53393555 C18.49660002 32.45306428 17.86676831 35.37380204 17.23828125 38.29492188 C16.83638694 40.15374306 16.43405882 42.01247052 16.03125 43.87109375 C15.84268433 44.74293808 15.65411865 45.61478241 15.45983887 46.51304626 C15.28295532 47.32141434 15.10607178 48.12978241 14.92382812 48.96264648 C14.76918091 49.67194809 14.61453369 50.38124969 14.4552002 51.11204529 C14 53 14 53 13 56 C12.34 56 11.68 56 11 56 C10.73783691 54.86046875 10.47567383 53.7209375 10.20556641 52.546875 C9.22601677 48.29002746 8.24547675 44.03340855 7.26464844 39.77685547 C6.84152961 37.94000295 6.41867381 36.10308982 5.99609375 34.26611328 C5.38612105 31.61474608 4.77518011 28.96360351 4.1640625 26.3125 C3.97752106 25.50071289 3.79097961 24.68892578 3.5987854 23.85253906 C2.45301629 18.88721915 1.24986437 13.94017537 0 9 C-0.12083954 9.5593222 -0.24167908 10.11864441 -0.36618042 10.69491577 C-1.6227308 16.50398187 -2.88961895 22.31072325 -4.16259766 28.11621094 C-4.63662251 30.28457413 -5.10798767 32.45352052 -5.57666016 34.62304688 C-6.24988416 37.73724163 -6.93257338 40.84922962 -7.6171875 43.9609375 C-7.82560272 44.934935 -8.03401794 45.9089325 -8.24874878 46.91244507 C-8.44880524 47.81322784 -8.64886169 48.71401062 -8.85498047 49.64208984 C-9.02818817 50.43706879 -9.20139587 51.23204773 -9.37985229 52.05111694 C-10 54 -10 54 -12 56 C-14.69263031 48.53115639 -16.39947825 41.01919935 -18 33.25 C-18.49895846 30.8591574 -18.99895419 28.46853103 -19.5 26.078125 C-19.86544922 24.32338867 -19.86544922 24.32338867 -20.23828125 22.53320312 C-21.22727177 17.94580865 -22.32633516 13.38737079 -23.44921875 8.83105469 C-23.97343311 6.13655569 -24.10536565 3.73574384 -24 1 C-23.34 1 -22.68 1 -22 1 C-18.7 16.18 -15.4 31.36 -12 47 C-8.97184885 34.9715369 -8.97184885 34.9715369 -6.11328125 22.91015625 C-5.81197045 21.59958144 -5.51053524 20.28903522 -5.20898438 18.97851562 C-4.75331251 16.99065025 -4.29885518 15.00252426 -3.84643555 13.01391602 C-3.39690066 11.04110138 -2.94267722 9.06935691 -2.48828125 7.09765625 C-2.22571533 5.94789307 -1.96314941 4.79812988 -1.69262695 3.61352539 C-1 1 -1 1 0 0 Z " fill="#3F485C" transform="translate(199,235)"/>
<path d="M0 0 C2.46399741 3.69599611 3.17662067 7.38086575 4.12890625 11.6484375 C4.32346909 12.49798004 4.51803192 13.34752258 4.7184906 14.22280884 C5.33898887 16.93891634 5.950761 19.65690779 6.5625 22.375 C6.97796092 24.19804317 7.39397029 26.02096144 7.81054688 27.84375 C11.02067627 41.92943509 11.02067627 41.92943509 12 47 C15.92744766 31.72930289 19.4420243 16.35989511 23 1 C23.66 1 24.32 1 25 1 C23.1144724 12.26003944 20.91555853 23.41501069 18.41064453 34.5534668 C17.86386895 36.98704179 17.32418205 39.42211978 16.78515625 41.85742188 C16.43790697 43.41415333 16.09026639 44.97079758 15.7421875 46.52734375 C15.58176971 47.25114731 15.42135193 47.97495087 15.256073 48.72068787 C14.11551286 53.76897428 14.11551286 53.76897428 13 56 C12.34 56 11.68 56 11 56 C10.73783691 54.75387939 10.47567383 53.50775879 10.20556641 52.22387695 C9.22979625 47.59172614 8.24810906 42.96084585 7.26464844 38.33032227 C6.84018578 36.32773338 6.41731892 34.32480556 5.99609375 32.3215332 C5.38963414 29.43870456 4.77740704 26.55715188 4.1640625 23.67578125 C3.97752106 22.78288895 3.79097961 21.88999664 3.5987854 20.970047 C2.70650647 16.80445653 1.77842303 12.89776905 0 9 C-0.16081055 9.75394043 -0.32162109 10.50788086 -0.48730469 11.28466797 C-2.06123901 18.65925752 -3.64386633 26.03193491 -5.23046875 33.40380859 C-5.90257228 36.5446985 -6.563452 39.68760384 -7.21875 42.83203125 C-7.56229335 44.45056471 -7.90602595 46.06905802 -8.25 47.6875 C-8.40049805 48.42790527 -8.55099609 49.16831055 -8.70605469 49.93115234 C-9.07314937 51.63587404 -9.52718959 53.32152305 -10 55 C-10.99 55.495 -10.99 55.495 -12 56 C-14.99637952 45.3261541 -17.46881358 34.59613487 -19.71972656 23.74291992 C-20.25889221 21.14464788 -20.80479058 18.54785291 -21.3515625 15.95117188 C-21.69830194 14.29435142 -22.04467064 12.63745332 -22.390625 10.98046875 C-22.55306702 10.20664352 -22.71550903 9.4328183 -22.88287354 8.63554382 C-24 3.23239382 -24 3.23239382 -24 1 C-23.34 1 -22.68 1 -22 1 C-20.89693964 5.81966088 -19.79425215 10.63940686 -18.69189453 15.45922852 C-18.31764546 17.09531908 -17.94329849 18.73138725 -17.56884766 20.36743164 C-17.02740495 22.7331753 -16.48632665 25.09900206 -15.9453125 27.46484375 C-15.78064484 28.18397446 -15.61597717 28.90310516 -15.44631958 29.64402771 C-15.20629715 30.69409752 -15.20629715 30.69409752 -14.96142578 31.76538086 C-14.80434143 32.45026581 -14.64725708 33.13515076 -14.4854126 33.84078979 C-14.13687968 35.39113239 -13.79943041 36.94398238 -13.46917725 38.49832153 C-13.29485168 39.31428802 -13.12052612 40.13025452 -12.94091797 40.97094727 C-12.78444794 41.71764175 -12.62797791 42.46433624 -12.46676636 43.23365784 C-12.15509237 45.01256895 -12.15509237 45.01256895 -11 46 C-10.83918945 45.27635254 -10.67837891 44.55270508 -10.51269531 43.80712891 C-10.28678711 42.79054199 -10.06087891 41.77395508 -9.828125 40.7265625 C-9.57764404 39.59911621 -9.32716309 38.47166992 -9.0690918 37.31005859 C-8.52155967 34.84673522 -7.97354274 32.38351955 -7.42504883 29.92041016 C-6.18758499 24.36076885 -4.95293685 18.80075254 -3.74609375 13.234375 C-3.47394043 11.98599854 -3.47394043 11.98599854 -3.19628906 10.71240234 C-2.86319077 9.18213215 -2.53299872 7.65122576 -2.20605469 6.11962891 C-1.11193716 1.11193716 -1.11193716 1.11193716 0 0 Z " fill="#40465B" transform="translate(252,235)"/>
<path d="M0 0 C3.18258248 -0.02292805 6.36511097 -0.03807591 9.54774857 -0.05093384 C10.53408059 -0.05848946 11.52041262 -0.06604507 12.53663349 -0.07382965 C13.45029399 -0.07590172 14.36395449 -0.07797379 15.30530167 -0.08010864 C16.11217139 -0.08395317 16.91904112 -0.0877977 17.75036144 -0.09175873 C19.85072708 0.02523804 19.85072708 0.02523804 22.85072708 1.02523804 C22.85072708 2.01523804 22.85072708 3.00523804 22.85072708 4.02523804 C-16.08927292 4.02523804 -55.02927292 4.02523804 -95.14927292 4.02523804 C-94.81927292 3.03523804 -94.48927292 2.04523804 -94.14927292 1.02523804 C-82.68159018 0.89330918 -71.21389191 0.76282662 -59.7461729 0.63408661 C-54.41869883 0.57423558 -49.09123087 0.51392459 -43.76377487 0.45248413 C-38.60253317 0.39297882 -33.44127807 0.33478387 -28.28001213 0.27742004 C-26.33130066 0.25554607 -24.38259404 0.23323492 -22.4338932 0.21043396 C-14.95602033 0.12316018 -7.47813022 0.05992918 0 0 Z " fill="#D3DCD4" transform="translate(465.1492729187012,311.9747619628906)"/>
<path d="M0 0 C37.62 0 75.24 0 114 0 C114 0.99 114 1.98 114 3 C76.38 3 38.76 3 0 3 C0 2.01 0 1.02 0 0 Z " fill="#D8DAD4" transform="translate(374,306)"/>
<path d="M0 0 C36.3 0 72.6 0 110 0 C110 0.99 110 1.98 110 3 C73.37 3 36.74 3 -1 3 C-0.67 2.01 -0.34 1.02 0 0 Z " fill="#D8DBD4" transform="translate(378,299)"/>
<path d="M0 0 C35.64 0 71.28 0 108 0 C108 0.99 108 1.98 108 3 C105.65972688 4.17013656 104.3405298 4.11000564 101.73532104 4.08229065 C100.84067139 4.07525116 99.94602173 4.06821167 99.02426147 4.06095886 C98.04027374 4.04801285 97.05628601 4.03506683 96.04248047 4.02172852 C95.00830994 4.01212097 93.9741394 4.00251343 92.90863037 3.99261475 C89.478082 3.95953923 86.0476576 3.91923948 82.6171875 3.87890625 C80.24350425 3.85461349 77.86981637 3.83076952 75.49612427 3.80735779 C69.23906185 3.74443285 62.98208112 3.67539006 56.72509766 3.60510254 C50.34411347 3.53449495 43.96307121 3.4696327 37.58203125 3.40429688 C25.054624 3.27517617 12.52729248 3.13979171 0 3 C0 2.01 0 1.02 0 0 Z " fill="#D4DCD4" transform="translate(380,292)"/>
<path d="M0 0 C34.32 0 68.64 0 104 0 C104 0.99 104 1.98 104 3 C69.68 3 35.36 3 0 3 C0 2.01 0 1.02 0 0 Z " fill="#D6DBD4" transform="translate(384,279)"/>
<path d="M0 0 C1.56390051 4.70144343 -0.41156357 7.83789939 -2.5 12.0625 C-2.87020264 12.82473877 -3.24040527 13.58697754 -3.62182617 14.37231445 C-13.07782715 33.51317229 -26.77920283 48.30202394 -42 63 C-42.99 62.67 -43.98 62.34 -45 62 C-44.34 61.01 -43.68 60.02 -43 59 C-43 58.34 -43 57.68 -43 57 C-41.34928604 55.97388051 -39.68029994 54.97691857 -38 54 C-37.443125 53.443125 -36.88625 52.88625 -36.3125 52.3125 C-35.879375 51.879375 -35.44625 51.44625 -35 51 C-34.34 51 -33.68 51 -33 51 C-32.75636719 50.43539062 -32.51273437 49.87078125 -32.26171875 49.2890625 C-30.76470019 46.57310932 -28.94366063 44.62720762 -26.8125 42.375 C-16.1952556 30.72481795 -8.67637705 16.86857589 -1.875 2.72265625 C-1 1 -1 1 0 0 Z " fill="#E2ECE4" transform="translate(333,280)"/>
<path d="M0 0 C21.45 0 42.9 0 65 0 C65 0.99 65 1.98 65 3 C43.88 3 22.76 3 1 3 C0.67 2.01 0.34 1.02 0 0 Z " fill="#AFBEC4" transform="translate(247,414)"/>
<path d="M0 0 C21.12 0 42.24 0 64 0 C64 0.99 64 1.98 64 3 C42.88 3 21.76 3 0 3 C0 2.01 0 1.02 0 0 Z " fill="#AFBFC5" transform="translate(248,448)"/>
<path d="M0 0 C21.12 0 42.24 0 64 0 C64 0.99 64 1.98 64 3 C42.88 3 21.76 3 0 3 C0 2.01 0 1.02 0 0 Z " fill="#AFBFC5" transform="translate(248,441)"/>
<path d="M0 0 C2.31068143 3.46602214 3.5776165 7.03576227 4.9375 10.9375 C5.20328857 11.69732178 5.46907715 12.45714355 5.74291992 13.23999023 C10.1492355 26.05086971 12.17782661 37.98017326 12.0625 51.5 C12.05798828 52.51320312 12.05347656 53.52640625 12.04882812 54.5703125 C12.03714593 57.04693827 12.02076582 59.52343657 12 62 C11.67 62 11.34 62 11 62 C10.17318437 58.35267623 9.88145536 54.91989317 9.75 51.1875 C8.7549763 36.43316422 5.55213767 21.35014804 -0.1796875 7.70703125 C-1.09508557 4.68621761 -0.88649566 2.9932909 0 0 Z " fill="#DFE9E2" transform="translate(332,168)"/>
<path d="M0 0 C0.33 0 0.66 0 1 0 C1.04946866 4.07507572 1.08575189 8.15003497 1.10986328 12.2253418 C1.1199157 13.61144048 1.1335597 14.99751799 1.15087891 16.38354492 C1.17515952 18.3766975 1.18542031 20.37000533 1.1953125 22.36328125 C1.20578613 23.56251221 1.21625977 24.76174316 1.22705078 25.99731445 C1 29 1 29 -1 32 C-1.66 31.67 -2.32 31.34 -3 31 C-2.67 24.4 -2.34 17.8 -2 11 C-1.67 11 -1.34 11 -1 11 C-0.67 7.37 -0.34 3.74 0 0 Z " fill="#BDD7D2" transform="translate(344,214)"/>
<path d="M0 0 C7.26 0 14.52 0 22 0 C19 3 19 3 16.9152832 3.34057617 C16.13499756 3.32486572 15.35471191 3.30915527 14.55078125 3.29296875 C13.70322266 3.28330078 12.85566406 3.27363281 11.98242188 3.26367188 C11.10134766 3.23853516 10.22027344 3.21339844 9.3125 3.1875 C8.41982422 3.17396484 7.52714844 3.16042969 6.60742188 3.14648438 C4.40433834 3.11114079 2.20247418 3.06180493 0 3 C0 2.01 0 1.02 0 0 Z " fill="#D2D2D2" transform="translate(422,420)"/>
<path d="M0 0 C3.04679358 3.04679358 3.28820291 6.68612238 4.1875 10.8125 C4.37763672 11.62009766 4.56777344 12.42769531 4.76367188 13.25976562 C5.69825304 17.47055383 6.34583263 20.77391409 5 25 C3.01822652 21.52758821 2.21062445 18.08286042 1.375 14.1875 C1.11460937 13.00542969 0.85421875 11.82335937 0.5859375 10.60546875 C0.00029103 7.00179077 -0.10264148 3.64377252 0 0 Z " fill="#3A4A5E" transform="translate(282,236)"/>
<path d="M0 0 C0.66 0 1.32 0 2 0 C3.00005304 3.00015912 3.11575585 4.97423756 3.09765625 8.10546875 C3.09282227 9.57983398 3.09282227 9.57983398 3.08789062 11.08398438 C3.07951172 12.10814453 3.07113281 13.13230469 3.0625 14.1875 C3.05798828 15.22326172 3.05347656 16.25902344 3.04882812 17.32617188 C3.0370401 19.88417266 3.02058515 22.44205733 3 25 C2.67 25 2.34 25 2 25 C1.27586627 21.68856994 0.83645745 18.52155779 0.68359375 15.13671875 C0.64169922 14.25048828 0.59980469 13.36425781 0.55664062 12.45117188 C0.51732422 11.53916016 0.47800781 10.62714844 0.4375 9.6875 C0.39431641 8.75615234 0.35113281 7.82480469 0.30664062 6.86523438 C0.20102775 4.57695546 0.09892248 2.28857628 0 0 Z " fill="#F3F3EC" transform="translate(341,205)"/>
<path d="M0 0 C2.05078125 0.03255208 4.1015625 0.06510417 6.15234375 0.09765625 C6.15234375 0.42765625 6.15234375 0.75765625 6.15234375 1.09765625 C8.62734375 1.59265625 8.62734375 1.59265625 11.15234375 2.09765625 C11.15234375 2.42765625 11.15234375 2.75765625 11.15234375 3.09765625 C4.22234375 3.09765625 -2.70765625 3.09765625 -9.84765625 3.09765625 C-9.84765625 2.76765625 -9.84765625 2.43765625 -9.84765625 2.09765625 C-8.71328125 1.95328125 -7.57890625 1.80890625 -6.41015625 1.66015625 C-3.51115113 1.2024186 -2.54328457 0.13442307 0 0 Z " fill="#D8F5E5" transform="translate(195.84765625,372.90234375)"/>
<path d="M0 0 C2.0448203 2.85392186 1.98672536 4.10574717 1.5390625 7.671875 C1.24807035 9.03424735 0.9429319 10.39366148 0.625 11.75 C0.47289062 12.44738281 0.32078125 13.14476562 0.1640625 13.86328125 C-0.21181608 15.57822727 -0.60429208 17.28952059 -1 19 C-1.66 18.34 -2.32 17.68 -3 17 C-2.79296875 14.35546875 -2.79296875 14.35546875 -2.1875 11.1875 C-1.99542969 10.14980469 -1.80335938 9.11210937 -1.60546875 8.04296875 C-1.40566406 7.03878906 -1.20585937 6.03460938 -1 5 C-0.81050781 4.04738281 -0.62101563 3.09476563 -0.42578125 2.11328125 C-0.28527344 1.41589844 -0.14476562 0.71851563 0 0 Z " fill="#3D495D" transform="translate(250,240)"/>
<path d="M0 0 C0.33 0 0.66 0 1 0 C1.0272415 1.41655793 1.04650467 2.83327045 1.0625 4.25 C1.07410156 5.03890625 1.08570313 5.8278125 1.09765625 6.640625 C1.00385306 8.90691002 0.63241063 10.8288895 0 13 C-0.66 13 -1.32 13 -2 13 C-2.05416188 11.39620659 -2.09286638 9.79188594 -2.125 8.1875 C-2.14820313 7.29417969 -2.17140625 6.40085938 -2.1953125 5.48046875 C-2 3 -2 3 0 0 Z " fill="#E5ECE5" transform="translate(342,244)"/>
<path d="M0 0 C3.3 0.33 6.6 0.66 10 1 C9.67 1.66 9.34 2.32 9 3 C6.03 3 3.06 3 0 3 C0 2.01 0 1.02 0 0 Z " fill="#C4C4C4" transform="translate(422,420)"/>
<path d="M0 0 C1.85776765 3.13498292 2.20140476 5.37471432 2 9 C1.34 9 0.68 9 0 9 C-0.33 9.66 -0.66 10.32 -1 11 C-1.33 8.03 -1.66 5.06 -2 2 C-1.34 2 -0.68 2 0 2 C0 1.34 0 0.68 0 0 Z " fill="#CCDFD9" transform="translate(341,196)"/>
<path d="M0 0 C0.99 1.485 0.99 1.485 2 3 C2.66 3.66 3.32 4.32 4 5 C3.625 8.625 3.625 8.625 3 12 C2.34 11.67 1.68 11.34 1 11 C0.5859375 8.49609375 0.5859375 8.49609375 0.375 5.4375 C0.30023438 4.42558594 0.22546875 3.41367187 0.1484375 2.37109375 C0.09945313 1.58863281 0.05046875 0.80617188 0 0 Z " fill="#483B58" transform="translate(315,279)"/>
<path d="M0 0 C0.66 0.66 1.32 1.32 2 2 C1.7578125 4.8203125 1.7578125 4.8203125 1.125 8.125 C0.92132813 9.22070312 0.71765625 10.31640625 0.5078125 11.4453125 C0.34023437 12.28835938 0.17265625 13.13140625 0 14 C-0.66 13.34 -1.32 12.68 -2 12 C-1.7578125 9.1796875 -1.7578125 9.1796875 -1.125 5.875 C-0.92132813 4.77929688 -0.71765625 3.68359375 -0.5078125 2.5546875 C-0.34023437 1.71164062 -0.17265625 0.86859375 0 0 Z " fill="#3A4D5E" transform="translate(217,256)"/>
<path d="M0 0 C0.66 0.33 1.32 0.66 2 1 C0.1875 3.5 0.1875 3.5 -2 6 C-2.99 6 -3.98 6 -5 6 C-5 5.34 -5 4.68 -5 4 C-5.66 3.67 -6.32 3.34 -7 3 C-4.69631264 1.93347808 -2.35981813 0.93578995 0 0 Z " fill="#DBF4E5" transform="translate(257,359)"/>
<path d="M0 0 C0.33 0 0.66 0 1 0 C0.67 3.3 0.34 6.6 0 10 C-0.66 10 -1.32 10 -2 10 C-2.33 7.03 -2.66 4.06 -3 1 C-2.34 1.66 -1.68 2.32 -1 3 C-0.67 2.01 -0.34 1.02 0 0 Z " fill="#493C58" transform="translate(295,281)"/>
<path d="M0 0 C0.66 0 1.32 0 2 0 C2.79953138 3.28696233 3.09658936 4.71023192 2 8 C1.34 8 0.68 8 0 8 C-1.125 2.25 -1.125 2.25 0 0 Z " fill="#3C4C5D" transform="translate(210,283)"/>
<path d="M0 0 C0.33 0.66 0.66 1.32 1 2 C1.66 2 2.32 2 3 2 C2.67 4.31 2.34 6.62 2 9 C1.01 8.67 0.02 8.34 -1 8 C-0.67 5.36 -0.34 2.72 0 0 Z " fill="#C6DCD6" transform="translate(339,255)"/>
<path d="M0 0 C1.80411967 2.75924185 2.0127245 3.88972103 1.625 7.25 C1.41875 8.1575 1.2125 9.065 1 10 C-0.80411967 7.24075815 -1.0127245 6.11027897 -0.625 2.75 C-0.41875 1.8425 -0.2125 0.935 0 0 Z " fill="#334E61" transform="translate(314,271)"/>
<path d="M0 0 C0.33 0 0.66 0 1 0 C1.125 5.75 1.125 5.75 0 8 C-0.66 8 -1.32 8 -2 8 C-2.125 5.125 -2.125 5.125 -2 2 C-1.34 1.34 -0.68 0.68 0 0 Z " fill="#463E59" transform="translate(265,283)"/>
<path d="M0 0 C0.66 0.66 1.32 1.32 2 2 C1.96712417 4.72869407 1.43602229 7.2966618 1 10 C0.34 9.34 -0.32 8.68 -1 8 C-0.96712417 5.27130593 -0.43602229 2.7033382 0 0 Z " fill="#355160" transform="translate(248,249)"/>
<path d="M0 0 C2.29013653 3.4352048 2.17842973 4.985331 2 9 C1.67 8.01 1.34 7.02 1 6 C0.34 6 -0.32 6 -1 6 C-1.042721 4.33388095 -1.04063832 2.66617115 -1 1 C-0.67 0.67 -0.34 0.34 0 0 Z " fill="#483E58" transform="translate(199,235)"/>
<path d="M0 0 C0.99 0.33 1.98 0.66 3 1 C3 2.98 3 4.96 3 7 C2.34 7 1.68 7 1 7 C0.67 4.69 0.34 2.38 0 0 Z " fill="#E9EEE8" transform="translate(338,191)"/>
</svg>
